<mxfile host="app.diagrams.net" modified="2024-07-13T18:56:14.231Z" agent="Mozilla/5.0 (Windows NT 10.0; Win64; x64) AppleWebKit/537.36 (KHTML, like Gecko) Chrome/126.0.0.0 Safari/537.36" version="24.6.4" etag="5wkXBUcPqDFf5ZWTMSrL" type="github">
  <diagram name="Page-1" id="ARuMoFGbIdLeMwrPTsVy">
    <mxGraphModel>
      <root>
        <mxCell id="0" />
        <mxCell id="1" parent="0" />
      </root>
    </mxGraphModel>
  </diagram>
</mxfile>
